HIERARCHY
ROOT Hips
{
 OFFSET 0.000000 0.000000 0.000000
 CHANNELS 6 Xposition Yposition Zposition Yrotation Xrotation Zrotation
 JOINT Chest
 {
  OFFSET 0.000000 9.857222 0.000240
  CHANNELS 3 Yrotation Xrotation Zrotation
  JOINT Chest2
  {
   OFFSET 0.000000 10.876940 -0.000436
   CHANNELS 3 Yrotation Xrotation Zrotation
   JOINT Chest3
   {
    OFFSET 0.000000 9.827798 0.000000
    CHANNELS 3 Yrotation Xrotation Zrotation
    JOINT Chest4
    {
     OFFSET 0.000000 9.827798 0.000000
     CHANNELS 3 Yrotation Xrotation Zrotation
     JOINT Neck
     {
      OFFSET 0.000000 13.831992 0.000000
      CHANNELS 3 Yrotation Xrotation Zrotation
      JOINT Head
      {
       OFFSET 0.000000 9.147643 -0.001036
       CHANNELS 3 Yrotation Xrotation Zrotation
       End Site
       {
        OFFSET 0.000000 17.515799 -0.000541
       }
      }
     }
     JOINT RightCollar
     {
      OFFSET -3.001579 7.717577 0.000000
      CHANNELS 3 Yrotation Xrotation Zrotation
      JOINT RightShoulder
      {
       OFFSET -14.002642 0.000000 0.000000
       CHANNELS 3 Yrotation Xrotation Zrotation
       JOINT RightElbow
       {
        OFFSET -30.053852 0.000000 0.000000
        CHANNELS 3 Yrotation Xrotation Zrotation
        JOINT RightWrist
        {
         OFFSET -24.564923 0.000000 -0.000000
         CHANNELS 3 Yrotation Xrotation Zrotation
         End Site
         {
          OFFSET -18.334355 0.000000 0.000000
         }
        }
       }
      }
     }
     JOINT LeftCollar
     {
      OFFSET 3.001579 7.717577 0.000000
      CHANNELS 3 Yrotation Xrotation Zrotation
      JOINT LeftShoulder
      {
       OFFSET 14.002642 0.000000 0.000000
       CHANNELS 3 Yrotation Xrotation Zrotation
       JOINT LeftElbow
       {
        OFFSET 30.053852 0.000000 0.000000
        CHANNELS 3 Yrotation Xrotation Zrotation
        JOINT LeftWrist
        {
         OFFSET 24.564923 0.000000 -0.000000
         CHANNELS 3 Yrotation Xrotation Zrotation
         End Site
         {
          OFFSET 18.334355 0.000000 0.000000
         }
        }
       }
      }
     }
    }
   }
  }
 }
 JOINT RightHip
 {
  OFFSET -8.003235 -0.001175 -0.000120
  CHANNELS 3 Yrotation Xrotation Zrotation
  JOINT RightKnee
  {
   OFFSET 0.000000 -41.759727 0.000113
   CHANNELS 3 Yrotation Xrotation Zrotation
   JOINT RightAnkle
   {
    OFFSET 0.000000 -40.728748 0.000159
    CHANNELS 3 Yrotation Xrotation Zrotation
    JOINT RightToe
    {
     OFFSET 0.000000 -6.515296 14.732841
     CHANNELS 3 Yrotation Xrotation Zrotation
     End Site
     {
      OFFSET 0.000000 -1.502839 6.412115
     }
    }
   }
  }
 }
 JOINT LeftHip
 {
  OFFSET 8.003235 -0.001175 -0.000120
  CHANNELS 3 Yrotation Xrotation Zrotation
  JOINT LeftKnee
  {
   OFFSET 0.000000 -41.759727 0.000113
   CHANNELS 3 Yrotation Xrotation Zrotation
   JOINT LeftAnkle
   {
    OFFSET 0.000000 -40.728748 0.000159
    CHANNELS 3 Yrotation Xrotation Zrotation
    JOINT LeftToe
    {
     OFFSET 0.000000 -6.515296 14.732841
     CHANNELS 3 Yrotation Xrotation Zrotation
     End Site
     {
      OFFSET 0.000000 -1.502839 6.412115
     }
    }
   }
  }
 }
}
MOTION
Frames: 14
Frame Time: 0.016667
0.485290 90.727817 19.586221 -31.681423 -18.031334 -1.790352 -0.026481 3.843192 -1.377675 0.103517 1.681630 -0.613034 0.103517 1.681630 -0.613034 0.079320 1.261120 -0.460027 -2.113056 31.480100 2.088943 -4.072278 22.377561 4.033390 3.229406 13.502847 1.077189 76.147508 42.574790 10.066309 73.494574 65.114728 -30.800317 -13.494975 13.120217 -56.195547 -16.223599 19.609637 -0.888812 -21.820699 17.731490 13.613337 -112.961941 53.023775 24.980840 -4.759571 12.422052 24.818037 -5.596303 29.128564 -5.112077 5.221564 -5.969804 4.374538 -0.665961 -5.789215 0.116374 0.478775 0.136832 0.206935 3.911737 17.978875 6.018400 -4.515939 3.944351 -4.693113 1.009885 -3.744790 0.472922 -0.259684 0.019328 -0.120432
0.520078 90.735369 19.551873 -31.700022 -18.133045 -1.828061 -0.074189 3.995702 -1.368133 0.083079 1.747818 -0.611079 0.083079 1.747818 -0.611079 0.064052 1.310782 -0.458511 -2.046721 31.507107 2.081806 -3.952956 22.424203 4.009548 3.730280 13.956139 1.187605 78.029598 42.619792 12.347280 72.787681 65.767930 -30.793444 -13.890521 13.134498 -57.552673 -16.659544 19.911365 -1.252994 -22.312399 18.672069 12.563291 -112.003253 53.362779 25.932127 -4.620934 12.486977 25.763992 -5.563709 29.184130 -5.050976 5.217566 -5.940097 4.359880 -0.750994 -5.756050 0.094039 0.561681 0.124309 0.236562 3.871542 18.043367 5.983332 -4.512552 3.971362 -4.616194 1.103998 -3.736473 0.475895 -0.315188 0.023563 -0.144331
0.552952 90.745051 19.508368 -31.693859 -18.263236 -1.869817 -0.150121 4.403693 -1.371167 0.075556 1.917185 -0.608841 0.075556 1.917185 -0.608841 0.058573 1.437815 -0.456826 -1.973186 31.344282 2.086568 -3.828216 22.118789 4.010873 4.258772 13.413715 1.273803 80.768679 42.409880 16.140936 71.238022 65.638606 -30.659195 -13.572194 12.366554 -60.021870 -16.614251 20.257232 -1.187622 -23.428969 19.186251 11.420050 -110.251263 52.156754 27.422749 -5.065894 12.654344 26.787044 -5.609725 29.261966 -5.031474 5.270618 -5.912908 4.354911 -0.838279 -5.719515 0.067009 0.648406 0.111734 0.269131 3.842188 18.126117 6.018086 -4.503053 3.997422 -4.616548 1.105269 -3.712220 0.482635 -0.326396 0.018972 -0.149925
0.567949 90.753904 19.444814 -31.698650 -18.383176 -1.916220 -0.197846 4.631330 -1.374427 0.074248 2.010822 -0.613996 0.074248 2.010822 -0.613996 0.057702 1.508044 -0.460694 -1.926620 31.298420 2.105501 -3.750130 22.032372 4.038205 4.627055 13.236277 1.315781 83.782162 41.758387 20.101792 73.685297 63.140875 -27.542010 -13.590662 14.123540 -62.127214 -16.740575 20.964362 -1.316287 -24.581258 19.503847 10.208978 -108.756382 49.744186 27.712658 -5.788330 13.185123 28.037443 -5.654414 29.330399 -4.981398 5.332389 -5.887898 4.325434 -0.875494 -5.687669 0.052378 0.688902 0.107303 0.283591 3.756136 18.187177 6.082463 -4.385027 4.039082 -4.665464 1.041067 -3.675789 0.482520 -0.301083 0.004113 -0.140195
0.578373 90.764205 19.379716 -31.691711 -18.523216 -1.945810 -0.251469 4.474081 -1.419460 0.065656 1.935019 -0.634333 0.065656 1.935019 -0.634333 0.051247 1.451198 -0.475912 -1.901352 31.550820 2.120686 -3.700478 22.500342 4.054359 4.924138 14.084499 1.436036 86.320283 40.344465 23.082199 74.745135 61.874618 -24.808864 -13.723519 14.692322 -63.477025 -17.117008 22.282242 -1.776288 -25.322201 18.949364 9.272186 -107.979748 47.366348 26.601059 -6.658690 14.038681 29.142042 -5.754296 29.427301 -4.933521 5.382286 -5.873664 4.269232 -0.971244 -5.657640 -0.002171 0.815933 0.108657 0.338583 3.649565 18.278414 6.039939 -4.276851 4.074432 -4.589878 1.117412 -3.641578 0.483260 -0.382365 -0.006202 -0.178387
0.584894 90.776318 19.316618 -31.647323 -18.664218 -1.963405 -0.317879 4.253452 -1.455657 0.051460 1.830599 -0.644820 0.051460 1.830599 -0.644820 0.040524 1.372897 -0.483728 -1.923805 31.856685 2.089317 -3.726603 23.067650 3.994260 5.268078 14.671620 1.574489 88.305787 38.588267 25.620639 74.592875 61.417671 -22.277356 -13.592681 14.851581 -64.469440 -17.279738 23.258469 -2.077994 -25.998825 17.912679 8.388169 -107.544409 45.934663 24.678405 -7.497442 14.997909 30.064802 -5.946480 29.524857 -4.964181 5.449619 -5.872415 4.247481 -1.038939 -5.601949 -0.053606 0.921177 0.090792 0.384824 3.678886 18.376288 6.054772 -4.328488 4.067248 -4.549101 1.196143 -3.585390 0.485892 -0.443963 -0.018894 -0.207522
0.572369 90.785611 19.242701 -31.665542 -18.752610 -1.993347 -0.328616 3.958951 -1.421743 0.036908 1.699117 -0.641721 0.036908 1.699117 -0.641721 0.029464 1.274301 -0.481358 -1.988108 32.203565 1.995575 -3.816738 23.710175 3.828844 5.536046 15.280979 1.611637 90.022623 37.317008 28.001662 74.119379 61.026479 -20.096900 -13.380199 15.545171 -65.217416 -17.321528 24.197986 -2.345145 -26.921638 16.523245 7.171848 -107.343152 45.721854 21.607582 -8.076771 15.919564 30.949905 -6.018847 29.568719 -4.931781 5.491857 -5.865550 4.227569 -1.033429 -5.551640 -0.075981 0.934968 0.077597 0.391475 3.817477 18.420628 6.177066 -4.376939 4.052720 -4.577759 1.169253 -3.533995 0.469624 -0.437884 -0.028788 -0.204528
0.553115 90.788526 19.169464 -31.787001 -18.778140 -1.991476 -0.330208 3.487214 -1.362504 0.009770 1.490976 -0.628339 0.009770 1.490976 -0.628339 0.008860 1.118223 -0.471252 -2.057348 32.671567 1.825502 -3.902639 24.574296 3.525340 5.961008 16.390073 1.608595 91.404168 36.059910 30.047317 73.214381 60.802859 -17.937006 -13.021601 16.352278 -65.441939 -17.793240 25.169241 -3.120721 -27.475118 15.338267 5.827063 -107.368439 45.987778 17.520163 -8.417916 16.594406 31.846421 -5.998927 29.548644 -4.904127 5.552327 -5.867321 4.217895 -0.962981 -5.533461 -0.077077 0.879190 0.099840 0.368208 4.115216 18.417183 6.293297 -4.370364 4.018699 -4.565073 1.092318 -3.491736 0.442217 -0.437975 -0.027452 -0.202944
0.514500 90.786661 19.102101 -31.884605 -18.788883 -1.986476 -0.378593 2.952966 -1.338179 0.000509 1.238375 -0.623916 0.000509 1.238375 -0.623916 0.001646 0.928782 -0.467920 -2.124852 33.205720 1.666301 -3.987818 25.561618 3.238369 6.428911 17.638768 1.652320 92.777467 34.750680 32.131927 71.666288 60.695050 -15.930037 -12.566515 17.084386 -65.287091 -17.998070 26.192954 -3.685306 -28.126408 14.230692 4.679644 -107.926606 45.724222 12.620241 -8.575540 17.257726 32.695180 -6.035836 29.531569 -4.853602 5.618451 -5.882365 4.165255 -1.017851 -5.525305 -0.130488 0.966804 0.128141 0.407378 4.466094 18.412230 6.441537 -4.438594 3.967041 -4.560135 1.038592 -3.471902 0.419779 -0.474145 -0.010957 -0.217956
0.452914 90.778803 19.030351 -31.992208 -18.745391 -1.975544 -0.359113 2.423554 -1.363727 0.025233 0.992279 -0.639117 0.025233 0.992279 -0.639117 0.019962 0.744184 -0.479367 -2.195222 33.726257 1.586952 -4.091173 26.527230 3.092669 6.821888 18.646527 1.813314 94.667311 33.987141 34.923564 68.609903 60.469942 -15.236578 -12.039030 17.854919 -64.995738 -17.972573 27.365369 -3.853251 -29.076524 13.439878 3.723389 -107.995757 45.283517 8.083991 -8.700522 17.589041 33.192861 -6.142031 29.470524 -4.827130 5.746714 -5.901703 4.103333 -1.004450 -5.547652 -0.161128 0.988190 0.175386 0.415998 4.722285 18.358728 6.591058 -4.437272 3.918945 -4.611437 1.004019 -3.462118 0.393824 -0.469842 0.007648 -0.215791
0.379082 90.766404 18.957803 -32.063653 -18.656186 -1.963254 -0.336687 1.962637 -1.398735 0.048688 0.780810 -0.651241 0.048688 0.780810 -0.651241 0.037348 0.585556 -0.488486 -2.268838 34.177324 1.512738 -4.203630 27.364189 2.957593 7.127571 19.891272 1.929565 96.862052 33.525959 37.750372 64.190859 60.173480 -15.425328 -11.667443 18.678979 -64.710456 -18.267349 28.067176 -4.098251 -30.062980 14.279372 2.698917 -106.311438 45.061130 5.389854 -8.912368 17.534570 33.034654 -6.302150 29.372656 -4.811848 5.943759 -5.928516 4.022673 -0.990557 -5.577233 -0.171892 0.968616 0.223638 0.407000 4.935148 18.257323 6.745508 -4.422775 3.882066 -4.682351 0.938635 -3.468474 0.363027 -0.456003 0.032046 -0.211082
0.330637 90.750422 18.888694 -32.175051 -18.515089 -1.927126 -0.260093 1.473160 -1.424919 0.060793 0.579889 -0.650189 0.060793 0.579889 -0.650189 0.046211 0.434853 -0.487696 -2.339905 34.614488 1.401394 -4.308689 28.173556 2.756032 7.503854 20.844579 2.047553 99.103025 32.522158 40.561745 60.011489 59.691874 -14.455143 -11.207724 19.706948 -64.244170 -18.676516 28.922972 -4.388147 -31.414544 16.007006 2.031023 -103.065989 44.623518 4.076960 -9.115431 17.175815 32.326883 -6.293688 29.196961 -4.783411 6.094478 -5.924189 3.970753 -0.913757 -5.621136 -0.137728 0.843389 0.279352 0.354200 5.199027 18.103905 6.824602 -4.404550 3.837340 -4.691500 0.901809 -3.470798 0.351345 -0.481438 0.061558 -0.224025
0.330799 90.737546 18.833504 -32.243959 -18.386868 -1.891316 -0.179420 0.912823 -1.492338 0.076135 0.355643 -0.656481 0.076135 0.355643 -0.656481 0.057483 0.266651 -0.492403 -2.383813 35.113507 1.317791 -4.369491 29.097868 2.597809 7.781270 21.717309 2.178023 101.384587 30.857751 42.906986 56.235898 59.161641 -11.979231 -10.654140 20.825926 -63.563499 -19.109126 30.618360 -4.651967 -33.356103 17.729976 1.231779 -99.142052 44.528315 2.914221 -9.298557 16.241234 30.842723 -6.165645 29.004418 -4.734107 6.152467 -5.878478 3.950546 -0.909447 -5.655459 -0.115583 0.767393 0.316983 0.324862 5.328599 17.963912 6.775748 -4.327198 3.806059 -4.609720 0.943131 -3.474597 0.353642 -0.563465 0.093810 -0.261257
0.345669 90.727854 18.773515 -32.245557 -18.249640 -1.911527 -0.105017 0.361710 -1.565931 0.092561 0.129542 -0.683600 0.092561 0.129542 -0.683600 0.069566 0.097053 -0.512720 -2.379824 35.618403 1.309949 -4.354687 30.034581 2.568074 7.912280 23.059974 2.275674 103.636244 29.000600 44.238465 51.822576 58.969061 -9.344068 -10.351981 21.584989 -62.923730 -19.865325 32.710525 -4.979900 -35.048377 18.762621 0.454608 -95.742158 44.587230 1.046983 -9.415166 15.326092 28.925145 -5.999978 28.797658 -4.619779 6.153174 -5.808615 3.949824 -0.894634 -5.675452 -0.105628 0.691233 0.330293 0.298676 5.417390 17.781805 6.832812 -4.319123 3.795347 -4.632025 0.908238 -3.474745 0.349581 -0.542815 0.123662 -0.252749
